<svg id="Layer_1" data-name="Layer 1" xmlns="http://www.w3.org/2000/svg" xmlns:xlink="http://www.w3.org/1999/xlink" viewBox="0 0 717 207"><defs><style>.cls-1{fill:none;}.cls-2{clip-path:url(#clip-path);}.cls-3{fill:#fff;}</style><clipPath id="clip-path"><rect class="cls-1" x="15.21" y="13.62" width="684.79" height="179.86"/></clipPath></defs><g class="cls-2"><path class="cls-3" d="M684.26,193H699v-2.5h-12v-7.77h11.73v-2.5H687.06V173h12v-2.5H684.26Zm-13,0h2.71V170.5h-2.81v17.81l-13-17.81h-2.88V193h2.81V174.86Zm-29.09,0h2.8V170.5h-2.8Zm-25.85,0h16.49v-2.5H619.85l12.67-17.71V170.5H616.27V173h12.67l-12.67,17.71Zm-17.81-20,4.87,12.54h-9.77Zm7.71,20h3.11l-9.09-22.54h-3.48L587.65,193h3.11l2-5h11.42ZM560,181.79a11.3,11.3,0,0,0,11.59,11.69,11.74,11.74,0,0,0,8.85-3.89v-8.14H569.91V184h7.74v4.6a8.94,8.94,0,0,1-6,2.43c-4.93,0-8.68-3.85-8.68-9.19s3.75-9.16,8.68-9.16a8.3,8.3,0,0,1,6.52,3.11l2.23-1.39a10.75,10.75,0,0,0-8.75-4.22A11.27,11.27,0,0,0,560,181.79M543.35,173l4.87,12.54h-9.77Zm7.71,20h3.1l-9.09-22.54h-3.48L532.54,193h3.11l2-5h11.42Zm-29.33,0h2.8V170.5h-4l-7,17.17-7-17.17h-4V193h2.81V174.29L512.91,193h1.14l7.68-18.75Zm-51.47,0h2.81v-9.53l8.85-13h-3.28l-7,10.48-7-10.48h-3.28l8.88,13ZM445,193h2.8V173h7.16v-2.5H437.83V173H445Zm-18.72,0H429V170.5h-2.8ZM400,189.86a11.16,11.16,0,0,0,8.65,3.59c6.09,0,8.32-3.35,8.32-6.63,0-4.73-4.19-5.88-7.88-6.86-2.87-.77-5.47-1.45-5.47-3.71s1.93-3.59,4.63-3.59a8.62,8.62,0,0,1,6.52,2.71l1.69-2.06a10.57,10.57,0,0,0-8-3.15c-4.42,0-7.74,2.54-7.74,6.26,0,4.42,4,5.44,7.64,6.38,3,.81,5.71,1.56,5.71,4.26,0,1.72-1.28,3.88-5.3,3.88a9.52,9.52,0,0,1-7.1-3.21Zm-11-12.57a4.22,4.22,0,0,1-4.5,4.33h-5.91V173h5.91a4.2,4.2,0,0,1,4.5,4.29M388.8,193h3.31L386,183.85a6.23,6.23,0,0,0,5.84-6.56c0-4.15-2.94-6.79-7.06-6.79h-9.06V193h2.81v-8.95h4.49Zm-37.34,0h14.77v-2.5h-12v-7.77H366v-2.5H354.26V173h12v-2.5H351.46Zm-20.58,0h3.48l9.09-22.54h-3.21L332.64,190,325,170.5h-3.21ZM311,193h2.81V170.5H311Zm-13,0h2.7V170.5h-2.8v17.81l-13-17.81H282V193h2.81V174.86Zm-44.67-8.75c0,5.54,3.07,9.16,9.19,9.16s9.19-3.59,9.19-9.2V170.5h-2.8v13.72c0,4.12-2.23,6.72-6.39,6.72s-6.39-2.6-6.39-6.72V170.5h-2.8Z"/><path class="cls-3" d="M605.39,66.33v4.41c4.61,0,7.75.5,9.45,1.49a6.14,6.14,0,0,1,3.06,4.41q.52,2.92.53,16.63v23.39q0,14.37-.62,17.11a5.91,5.91,0,0,1-3.21,4.07c-1.73.9-4.8,1.34-9.21,1.34v4.41h39.69v-4.41q-6.9,0-9.44-1.48a6.15,6.15,0,0,1-3.07-4.46q-.52-3-.53-16.58v-32a44.38,44.38,0,0,1,12-12.51A24.06,24.06,0,0,1,657.44,68,16.1,16.1,0,0,1,667.55,71a12.5,12.5,0,0,1,4.89,7q.91,4,.91,13.27v25.31q0,13.13-.28,15.81a7.53,7.53,0,0,1-2.4,4.7q-2.11,2-9,2h-1.82v4.41H700v-4.41c-4.54,0-7.65-.49-9.35-1.48a6,6,0,0,1-3-4.46q-.48-3-.48-16.58V92.12q0-10.94-1.73-16.63t-7.72-9.63q-6-3.93-15.38-3.94a33.31,33.31,0,0,0-15.82,4A50.19,50.19,0,0,0,632,78.12q-.28-10.25-2.49-16.2H627a121.94,121.94,0,0,1-21.57,4.41m-38.82,60.39a77.29,77.29,0,0,1-13.32,8.92q-5.94,3-10.45,3a10.35,10.35,0,0,1-8.24-3.69q-3.16-3.69-3.16-9.73,0-15.24,24.73-25.31l10.44-4.22Zm19.94,11.89q-3.84,0-5-3.17t-1.15-14.28V89.43q0-10.07-2.16-15t-8.87-8.72q-6.71-3.84-18.88-3.84-16.4,0-24.15,6.28T518.55,80c0,3.7,2,5.56,5.85,5.56q6.51,0,8.05-9.78,1.63-9.58,16-9.59,7.18,0,11.6,2.88c2.93,1.92,4.76,4.09,5.46,6.52s1.05,6.36,1.05,11.79v3.83l-14.85,6q-17,7-26.6,14.38t-9.64,17.25A14.79,14.79,0,0,0,521.24,141a21.23,21.23,0,0,0,13.7,4.6q6.24,0,14.14-3.45a100.55,100.55,0,0,0,17.49-10.25q1.15,6.79,4.94,10.25t10.3,3.45q15.26,0,16.11-16.39h-3.55q-1.53,9.4-7.86,9.4M363.26,66.24v4.41q6.62,0,9.16,1.53a6.06,6.06,0,0,1,3,4.55q.44,3,.43,16.44v23.49q0,14.18-.57,17a5.94,5.94,0,0,1-3.12,4.17q-2.53,1.4-8.87,1.39v4.41H401.7v-4.41q-6.42,0-8.91-1.63a6.31,6.31,0,0,1-2.88-4.79q-.39-3.16-.38-16.1V84a54.61,54.61,0,0,1,12.6-11.5,22.94,22.94,0,0,1,12.13-3.84,15.88,15.88,0,0,1,10.25,3.31,12.89,12.89,0,0,1,4.94,8,97.34,97.34,0,0,1,.82,15v21.76q0,14.28-.63,17.06a5.92,5.92,0,0,1-3.16,4.12c-1.7.9-4.68,1.34-9,1.34v4.41h38v-4.41c-4,0-6.82-.59-8.38-1.77a6.84,6.84,0,0,1-2.69-5q-.33-3.21-.33-15.76v-31q6.33-8.53,12.6-12.75a22.36,22.36,0,0,1,12.51-4.22,16.18,16.18,0,0,1,10,2.88,11.77,11.77,0,0,1,4.74,6.9,58.21,58.21,0,0,1,.91,12v26.17q0,14.09-.57,16.91a5.91,5.91,0,0,1-3.12,4.22q-2.53,1.4-8.77,1.39v4.41h39.21v-4.41q-6.9,0-9.44-1.44a6,6,0,0,1-3.07-4.41q-.53-3-.53-16.67V93.08q0-12-1.34-17.35t-7.67-9.59q-6.33-4.22-15.43-4.22a31.13,31.13,0,0,0-15.63,4.41,56.32,56.32,0,0,0-14.95,13.23q-2.4-8.82-8.43-13.23t-15.72-4.41a32.35,32.35,0,0,0-16,4.13,46.46,46.46,0,0,0-13.85,12.36q0-10.06-2.78-16.49h-1a104.94,104.94,0,0,1-22.53,4.32M344,84.35l2.11-5.55q2.2-5.85,4.84-7.53a13.88,13.88,0,0,1,7.23-1.77V65.09H332.69V69.5q9.68.38,9.68,5.08,0,1.44-2.78,8.53l-17.26,44.57L298.76,65.09H295l-24.35,62.59L254.76,85.6Q251,76.3,251,74.39a3.9,3.9,0,0,1,2.21-3.79q2.19-1.09,8.24-1.1V65.09H225.62V69.5q6,0,8,2.11t6.14,12.74l24,62.31H268l23.86-62.31,23.39,62.31h4.32ZM171.36,87.8q3.36-21.66,20.8-21.66a17,17,0,0,1,12.13,4.65q4.94,4.65,4.93,13.09a29.09,29.09,0,0,1-.29,3.92ZM216.8,71.32q-8.45-9.39-23.87-9.4a35,35,0,0,0-27.32,12.32q-10.92,12.32-10.93,30.91,0,13.14,5.66,22.34a40.2,40.2,0,0,0,14.52,14.23,38.14,38.14,0,0,0,38.68-.48A26.79,26.79,0,0,0,225.71,126h-4.6q-7.29,15.63-24.73,15.63-12.85,0-19.32-10.4t-6.47-31.11q0-2.77.39-8.43h54.73q-.48-10.94-8.91-20.32m-80,75.24V39q0-8.34,1.3-11.84t6-6q4.74-2.49,13-3.17v-4.4H110V18a38.17,38.17,0,0,1,13.14,2q5.46,2,7.23,5.46t1.78,12.08v77.73l-77-101.69H16.84V18q10.44,0,13.46,1.44T34.71,26q1.4,5.09,1.39,20v68.92q0,11.79-.91,14.95t-5.8,5.9q-4.89,2.73-14.18,3.4v4.41h48.5v-4.41q-10.35,0-15.53-3t-6.28-6.52q-1.09-3.54-1.1-14.76V24.73l91.92,121.83Z"/></g></svg>