<svg id="Layer_1" data-name="Layer 1" xmlns="http://www.w3.org/2000/svg" viewBox="0 0 231 231"><defs><style>.cls-1,.cls-3{fill:none;}.cls-2{fill:#fff;}.cls-3{stroke:#fff;stroke-miterlimit:10;stroke-width:9px;}</style></defs><rect class="cls-1" x="-0.5" width="231" height="231"/><path class="cls-2" d="M168.64,185.93V74.13q0-8.67,1.35-12.31c.89-2.42,3-4.5,6.27-6.23s7.79-2.82,13.51-3.28V47.72h-49v4.59a39.42,39.42,0,0,1,13.65,2.09q5.69,2.09,7.53,5.68t1.84,12.55v80.81l-80-105.72H43.89v4.59q10.86,0,14,1.49t4.58,6.78q1.45,5.28,1.45,20.82V153q0,12.26-1,15.55t-6,6.12q-5.09,2.85-14.74,3.54v4.59H92.62v-4.59q-10.77,0-16.15-3.09T70,168.39Q68.8,164.7,68.8,153V59.28l95.56,126.65Z"/><rect class="cls-3" x="15.5" y="15" width="200" height="200"/></svg>