<svg id="Layer_1" data-name="Layer 1" xmlns="http://www.w3.org/2000/svg" viewBox="0 0 172.54 172.54"><defs><style>.cls-1{fill:none;stroke:#fff;stroke-miterlimit:10;stroke-width:5.02px;}.cls-1,.cls-2{opacity:0.15;}.cls-3,.cls-4{fill:#fff;}.cls-4{fill-rule:evenodd;}</style></defs><title>NU Seal_White09</title><circle class="cls-1" cx="86.27" cy="86.27" r="83.76"/><g class="cls-2"><path class="cls-3" d="M18.53,92.4l4.56.19q1.1,0,1.43-.34a1.59,1.59,0,0,0,.36-1l.81,0L25.53,95l-.81,0a1.47,1.47,0,0,0-.2-.84,1,1,0,0,0-.52-.47,3.48,3.48,0,0,0-1-.13L18,93.32q-1.51-.06-1.57,1.36l-.81,0,.14-3.35,6.3-5.18L18.41,86q-1.62-.07-1.68,1.3l-.81,0,.15-3.56.81,0a1.29,1.29,0,0,0,.17.71,1,1,0,0,0,.5.46,2.82,2.82,0,0,0,.92.16l7.62.32,0,.94Z" transform="translate(-4.73 -5.07)"/><path class="cls-3" d="M22.86,76.05l2.38.59a3.25,3.25,0,0,0,.91.14.7.7,0,0,0,.45-.33,3,3,0,0,0,.4-1A3.2,3.2,0,0,0,27.11,74a2.19,2.19,0,0,0-.63-1,4.53,4.53,0,0,0-1.13-.82l.2-.8,3.15.85L26.5,81l-.79-.2,0-.18a1.24,1.24,0,0,0,0-1,1.52,1.52,0,0,0-.86-.44l-5.71-1.42a1.47,1.47,0,0,0-1,0,1.26,1.26,0,0,0-.49.86l0,.18-.77-.19,2-8.21,2.53.48-.2.8a4.3,4.3,0,0,0-1.16.22,1.34,1.34,0,0,0-.63.41,2.65,2.65,0,0,0-.33.87L18.67,75l3.33.83.22-.9a1.15,1.15,0,0,0,0-.91,1.68,1.68,0,0,0-.89-.47l.2-.8,3.27.81-.2.8-.13,0a1.64,1.64,0,0,0-.79,0q-.38.09-.56.81Z" transform="translate(-4.73 -5.07)"/><path class="cls-3" d="M31.19,66.37,23.08,65A3.23,3.23,0,0,0,21.7,65a1.15,1.15,0,0,0-.52.58l-.73-.36,2-4,.73.36q-.36.73.08.95a2.41,2.41,0,0,0,.66.2l4.59.74-4.8-4.74.51-1,6.86.62L28,55.43a3,3,0,0,0-.59-.43q-.77-.38-1.2.49l-.73-.36,1.42-2.84.73.36a1.09,1.09,0,0,0-.07.83A5.07,5.07,0,0,0,28.89,55l5.49,5-.51,1-7.12-.66,5,5Z" transform="translate(-4.73 -5.07)"/><path class="cls-3" d="M40.91,50.43l-8.26-2.29,3.87,3.37a3.91,3.91,0,0,0,.83.59,1,1,0,0,0,.71,0,1.51,1.51,0,0,0,.73-.49l.61.53-2.35,2.7-.61-.53a1.36,1.36,0,0,0,.35-.77,1,1,0,0,0-.15-.69,4.86,4.86,0,0,0-.72-.73L32,48.71a1.42,1.42,0,0,0-.92-.46,1.56,1.56,0,0,0-.88.63l-.61-.53,2.61-3,6.93,2L36.2,40.7l2.62-3,.61.53-.13.15q-.49.56-.43.91a1.52,1.52,0,0,0,.56.79l4.43,3.85a1.48,1.48,0,0,0,.87.45q.35,0,.83-.55l.15-.17.61.53-3.55,4.08-.61-.53.13-.15q.48-.56.42-.91a1.52,1.52,0,0,0-.56-.79l-4.41-3.83L41.28,50Z" transform="translate(-4.73 -5.07)"/><path class="cls-3" d="M48.7,39.06l.14.51a2.42,2.42,0,0,0,.27.71.53.53,0,0,0,.49.26,1.63,1.63,0,0,0,.72-.35l.48.65-2.64,1.95-.48-.65q.75-.56.32-2.22l-2.12-8,.69-.51,7.07,4.34a3.08,3.08,0,0,0,1.49.61,1.37,1.37,0,0,0,.71-.24l.48.65-4,2.93L51.89,39c.36-.26.55-.46.59-.59a.4.4,0,0,0-.06-.36,1.18,1.18,0,0,0-.38-.29l-.21-.13-.66-.41Zm-.25-.86,1.94-1.43-2.76-1.65Z" transform="translate(-4.73 -5.07)"/><path class="cls-3" d="M57.5,28.06l1.93,4.13q.47,1,1,1.11a1.6,1.6,0,0,0,1.06-.15l.34.74-3.38,1.58-.34-.74a1.48,1.48,0,0,0,.65-.56,1,1,0,0,0,.18-.67,3.49,3.49,0,0,0-.32-.91L56.44,28a1.3,1.3,0,0,0-1.93-.77l-.34-.74,3-1.42,7.5,3.2L63.16,25q-.69-1.47-1.93-.89l-.34-.74,3.23-1.51.34.74a1.29,1.29,0,0,0-.55.48,1,1,0,0,0-.18.66,2.8,2.8,0,0,0,.29.89l3.23,6.91-.85.4Z" transform="translate(-4.73 -5.07)"/><path class="cls-3" d="M76.3,19.16l-.1-.81,5.21-.64.1.81-.17,0q-.74.09-.92.39a1.53,1.53,0,0,0-.1,1l.48,3.89a6.35,6.35,0,0,0,.38,1.65,2,2,0,0,0,.89.94,2.35,2.35,0,0,0,1.46.25A2.57,2.57,0,0,0,85,26a2.09,2.09,0,0,0,.69-1.22,7,7,0,0,0,0-1.86l-.41-3.31a1.32,1.32,0,0,0-1.65-1.33l-.1-.81L87.15,17l.1.81a1.43,1.43,0,0,0-.63.26,1,1,0,0,0-.41.55,2.41,2.41,0,0,0,0,.9l.41,3.29a9.23,9.23,0,0,1,.08,1.75,3,3,0,0,1-.48,1.37,3.53,3.53,0,0,1-1.27,1.17,5.09,5.09,0,0,1-1.94.62,5.35,5.35,0,0,1-2.09-.12,3.55,3.55,0,0,1-1.5-.77,3.12,3.12,0,0,1-.8-1.16,6.61,6.61,0,0,1-.37-1.57l-.48-3.89a1.41,1.41,0,0,0-.36-.92A1.51,1.51,0,0,0,76.3,19.16Z" transform="translate(-4.73 -5.07)"/><path class="cls-3" d="M94.26,19.94l-.4,4.55a1.8,1.8,0,0,0,.27,1.44,1.6,1.6,0,0,0,1,.4l-.07.81-3.71-.33.07-.81a1.47,1.47,0,0,0,.84-.16,1,1,0,0,0,.49-.49,3.52,3.52,0,0,0,.18-.94l.44-5q.13-1.51-1.28-1.63l.07-.81,3.34.29,4.89,6.53.32-3.63q.14-1.62-1.22-1.74l.07-.81,3.55.31-.07.81a1.29,1.29,0,0,0-.71.14,1,1,0,0,0-.49.48,2.81,2.81,0,0,0-.2.91l-.67,7.6-.93-.08Z" transform="translate(-4.73 -5.07)"/><path class="cls-3" d="M107.73,19.76l.21-.79L113,20.33l-.21.79-.15,0a1.24,1.24,0,0,0-1,0,1.52,1.52,0,0,0-.46.85l-1.52,5.67a1.48,1.48,0,0,0,0,1q.15.32.85.51l.15,0-.21.79-5.07-1.36.21-.79a1.61,1.61,0,0,0,1.08,0,1.34,1.34,0,0,0,.5-.87l1.52-5.67a1.41,1.41,0,0,0,0-1A1.55,1.55,0,0,0,107.73,19.76Z" transform="translate(-4.73 -5.07)"/><path class="cls-3" d="M117.7,33l.08-8.34q0-1,0-1.31a1,1,0,0,0-.21-.53,1.9,1.9,0,0,0-.69-.46l.34-.74,4.8,2.2-.34.74q-1-.46-1.23,0a2.82,2.82,0,0,0-.12,1l0,4.94,3.61-3.31a2.24,2.24,0,0,0,.54-.68q.28-.62-.72-1.08l.34-.74,3.18,1.45-.34.74a1.25,1.25,0,0,0-1-.09,8.15,8.15,0,0,0-1.73,1.35l-5.68,5.16Z" transform="translate(-4.73 -5.07)"/><path class="cls-3" d="M131.24,35l-1.43,2a3.26,3.26,0,0,0-.47.79.7.7,0,0,0,.14.54,3,3,0,0,0,.79.74,3.2,3.2,0,0,0,1.3.64,2.18,2.18,0,0,0,1.16-.21,4.54,4.54,0,0,0,1.18-.75l.67.48-2,2.61-7.38-5.3.47-.66.15.11a1.24,1.24,0,0,0,.94.34,1.52,1.52,0,0,0,.73-.63L131,30.9a1.47,1.47,0,0,0,.37-.9q0-.35-.62-.77l-.15-.11.47-.65,6.87,4.93-1.38,2.17-.67-.48a4.3,4.3,0,0,0,.23-1.16,1.33,1.33,0,0,0-.14-.73,2.66,2.66,0,0,0-.69-.63l-1.5-1.08-2,2.78.75.54a1.15,1.15,0,0,0,.86.31,1.68,1.68,0,0,0,.77-.65l.67.48-2,2.74-.67-.48.09-.11a1.64,1.64,0,0,0,.3-.73q.05-.38-.55-.82Z" transform="translate(-4.73 -5.07)"/><path class="cls-3" d="M141,43.81l-1.72,1.6a1.46,1.46,0,0,0-.53.82,1.27,1.27,0,0,0,.46.88l.12.13-.59.55-3.65-3.91.59-.56.13.14q.51.55.86.52a1.52,1.52,0,0,0,.84-.48l4.29-4a1.46,1.46,0,0,0,.53-.82,1.27,1.27,0,0,0-.46-.88l-.13-.14.59-.55L145.08,40l.62.65A15.09,15.09,0,0,1,147,42.14a3.46,3.46,0,0,1,.51,1.17,2.47,2.47,0,0,1,0,1.31,2.41,2.41,0,0,1-.68,1.1,2.47,2.47,0,0,1-3.14.19,7.93,7.93,0,0,1-.41,2.65,7.82,7.82,0,0,0-.35,2,1.33,1.33,0,0,0,.35.79l-.59.55-2.12-2.27a21.36,21.36,0,0,1,.8-2.9,13,13,0,0,0,.42-1.51,1.09,1.09,0,0,0,0-.61A4.27,4.27,0,0,0,141,43.81Zm.65-.61a5.32,5.32,0,0,0,1.25,1.12,1.32,1.32,0,0,0,.9.09,2.32,2.32,0,0,0,1-.61,1.79,1.79,0,0,0,.72-1.35,2.74,2.74,0,0,0-.87-1.52l-.28-.29Z" transform="translate(-4.73 -5.07)"/><path class="cls-3" d="M144.53,54.48l2.87-1.82.47.74a4.15,4.15,0,0,0-1.25,2.09,2.34,2.34,0,0,0,.3,1.69,1.36,1.36,0,0,0,.85.65,1.2,1.2,0,0,0,.94-.16,1.3,1.3,0,0,0,.48-.58,2.94,2.94,0,0,0,.08-1.37,25.67,25.67,0,0,1-.18-2.59,3,3,0,0,1,.34-1.34,2.76,2.76,0,0,1,1-1.06,2.72,2.72,0,0,1,2.28-.35,3.08,3.08,0,0,1,1.84,1.35A3,3,0,0,1,155,54a2,2,0,0,0,.7-.16l.45.71-2.47,1.57-.44-.69a3.28,3.28,0,0,0,.91-1.56,1.89,1.89,0,0,0-.21-1.51,1.28,1.28,0,0,0-.76-.6,1.07,1.07,0,0,0-.86.14,1.2,1.2,0,0,0-.47.56,1.74,1.74,0,0,0-.13.78q0,.43.19,1.75a9.07,9.07,0,0,1,.09,1.84,2.95,2.95,0,0,1-1.37,2.2,2.83,2.83,0,0,1-2.37.35,3.36,3.36,0,0,1-2-1.49,3.72,3.72,0,0,1-.53-1.44,3.09,3.09,0,0,1,.09-1.45,2.79,2.79,0,0,0-.81.22Z" transform="translate(-4.73 -5.07)"/><path class="cls-3" d="M158.1,60l.74-.33L161,64.48l-.74.33-.06-.14q-.3-.68-.64-.77a1.52,1.52,0,0,0-1,.17l-5.38,2.36a1.47,1.47,0,0,0-.78.59,1.26,1.26,0,0,0,.14,1l.06.14-.74.33-2.11-4.81.74-.33a1.61,1.61,0,0,0,.64.87,1.34,1.34,0,0,0,1-.15l5.38-2.36a1.41,1.41,0,0,0,.78-.61A1.56,1.56,0,0,0,158.1,60Z" transform="translate(-4.73 -5.07)"/><path class="cls-3" d="M162.79,72.9l-.2-.81a2.8,2.8,0,0,0-.42-1,1.3,1.3,0,0,0-.77-.42,3.08,3.08,0,0,0-1.17,0l-.2-.8,2.74-.69,2.42,9.64-2.74.69-.2-.8a3,3,0,0,0,1.34-1,1.94,1.94,0,0,0,.06-1.41l-.21-.83-6.81,1.71a1.48,1.48,0,0,0-.86.45,1.29,1.29,0,0,0,0,1l.06.25L155,79l-1.33-5.32.79-.2.06.23q.18.73.5.87a1.51,1.51,0,0,0,1,0Z" transform="translate(-4.73 -5.07)"/><path class="cls-3" d="M160.23,87.59l3.62-2.41a4.22,4.22,0,0,0,1.05-.87,1.28,1.28,0,0,0,.18-.79l.81,0,.24,5-.81,0q0-.8-.47-.78a1.7,1.7,0,0,0-.72.34l-2.61,1.76,2.56,1.37a1.39,1.39,0,0,0,.74.2q.65,0,.6-1l.81,0,.17,3.4-.81,0a1.22,1.22,0,0,0-.39-.84,8.14,8.14,0,0,0-1.54-1l-3.13-1.73-2.2.11a1.47,1.47,0,0,0-.94.28,1.26,1.26,0,0,0-.22,1v.15l-.81,0-.26-5.32.81,0v.16a1.24,1.24,0,0,0,.32,1,1.52,1.52,0,0,0,1,.18Z" transform="translate(-4.73 -5.07)"/></g><g class="cls-2"><path class="cls-3" d="M20.7,120.76l6.13-5.49a3.22,3.22,0,0,0,.91-1,1.15,1.15,0,0,0-.13-.77l.74-.34,1.9,4.11-.74.34q-.34-.74-.79-.53a2.38,2.38,0,0,0-.56.39l-3.44,3.12,6.7-.79.48,1-4.77,5,4.13-.68a3,3,0,0,0,.7-.19q.78-.36.37-1.24l.74-.34,1.33,2.89-.74.34A1.09,1.09,0,0,0,33,126a5.07,5.07,0,0,0-2,.09l-7.31,1.18-.48-1,5-5.15-7,.77Z" transform="translate(-4.73 -5.07)"/><path class="cls-3" d="M35.39,128.69l.66-.47,3.06,4.27-.66.47-.09-.12q-.43-.6-.79-.62a1.51,1.51,0,0,0-.89.37L31.91,136a1.48,1.48,0,0,0-.64.74,1.26,1.26,0,0,0,.34.93l.09.13-.66.47L28,134l.66-.47q.46.64.81.71a1.34,1.34,0,0,0,.94-.36l4.77-3.43a1.4,1.4,0,0,0,.64-.76A1.55,1.55,0,0,0,35.39,128.69Z" transform="translate(-4.73 -5.07)"/><path class="cls-3" d="M43.83,146.43l-2.62,2.65-.58-.57a2.47,2.47,0,0,0,.37-1,4.4,4.4,0,0,1-3.2-1.41,4.77,4.77,0,0,1-1.57-3.67,5.12,5.12,0,0,1,1.53-3.52,5.4,5.4,0,0,1,3.53-1.62,4.73,4.73,0,0,1,3.81,1.53,4.3,4.3,0,0,1,1.35,3,6.09,6.09,0,0,0,.84-.41l.57.57-2.5,2.68-.57-.57a4.43,4.43,0,0,0,.75-2.43,2.74,2.74,0,0,0-.84-1.91,2.16,2.16,0,0,0-2.09-.64,6,6,0,0,0-2.68,1.79,9.66,9.66,0,0,0-1.51,1.87,2.3,2.3,0,0,0-.29,1.62,2.62,2.62,0,0,0,.74,1.4,2.83,2.83,0,0,0,1.91.82,4.35,4.35,0,0,0,2.49-.78Z" transform="translate(-4.73 -5.07)"/><path class="cls-3" d="M51.46,150.92,50,153.23a1.42,1.42,0,0,0-.31.94q.07.35.74.77l-.43.69-4.38-2.76.43-.69a1.58,1.58,0,0,0,1,.35q.35-.07.74-.68l3.13-5a1.41,1.41,0,0,0,.3-.94q-.07-.35-.76-.78l.43-.69,4.38,2.76-.43.69a1.5,1.5,0,0,0-1-.33q-.35.08-.73.68l-1.19,1.88,3.45,2.17,1.19-1.88a1.44,1.44,0,0,0,.31-.93q-.06-.35-.72-.77l.43-.69L61,150.8l-.43.69a1.61,1.61,0,0,0-1-.36q-.35.07-.74.69l-3.13,5a1.38,1.38,0,0,0-.3.95q.07.35.76.78l-.43.69-4.37-2.75.43-.69a1.44,1.44,0,0,0,1,.32,1.4,1.4,0,0,0,.72-.68l1.46-2.31Z" transform="translate(-4.73 -5.07)"/><path class="cls-3" d="M63.63,152.73l.3-.75,4.87,2-.3.75-.14-.06a1.24,1.24,0,0,0-1-.1,1.52,1.52,0,0,0-.56.79l-2.19,5.45a1.48,1.48,0,0,0-.14,1q.11.33.79.6l.14.06-.3.75-4.87-2,.3-.75a1.61,1.61,0,0,0,1.07.17q.33-.13.6-.81l2.19-5.45a1.41,1.41,0,0,0,.13-1Q64.39,153,63.63,152.73Z" transform="translate(-4.73 -5.07)"/><path class="cls-3" d="M75.32,156.74l-.82-.18a2.78,2.78,0,0,0-1.11-.07,1.29,1.29,0,0,0-.71.5,3.08,3.08,0,0,0-.52,1.05l-.81-.17.6-2.76,9.71,2.1-.6,2.76-.81-.17a3,3,0,0,0-.32-1.65,1.93,1.93,0,0,0-1.24-.68l-.84-.18-1.48,6.86a1.47,1.47,0,0,0,0,1,1.29,1.29,0,0,0,.89.47l.25.05-.17.79L72,165.28l.17-.79.23,0a1.25,1.25,0,0,0,1-.06,1.51,1.51,0,0,0,.42-.87Z" transform="translate(-4.73 -5.07)"/><path class="cls-3" d="M85.74,164.75l-.21.48a2.42,2.42,0,0,0-.23.73.53.53,0,0,0,.22.51,1.63,1.63,0,0,0,.79.17l0,.81L83,167.34l0-.81q.94,0,1.63-1.54L88,157.4l.86,0,2.85,7.79a3.08,3.08,0,0,0,.79,1.4,1.37,1.37,0,0,0,.71.26l0,.81-4.93-.17,0-.81a1.6,1.6,0,0,0,.83-.1.4.4,0,0,0,.17-.32,1.18,1.18,0,0,0-.12-.47l-.09-.23-.26-.73Zm.34-.83,2.41.08-1.14-3Z" transform="translate(-4.73 -5.07)"/><path class="cls-3" d="M107.74,161.59l.49,1.83a1.48,1.48,0,0,0,.47.86,1.35,1.35,0,0,0,1,0l.21.79-5,1.34-.21-.79.15,0q.72-.19.87-.52a1.51,1.51,0,0,0,0-1l-1.52-5.67a1.48,1.48,0,0,0-.47-.86,1.28,1.28,0,0,0-1,0l-.15,0-.21-.79,5.12-1.37.21.79-.16,0q-.71.19-.86.51a1.52,1.52,0,0,0,0,1l.71,2.67,2-3.09a1.74,1.74,0,0,0,.41-1.2q-.12-.44-1-.21l-.21-.79,4.25-1.13.21.79a3,3,0,0,0-1.14.62,8.59,8.59,0,0,0-1.44,1.86l-.65,1,3.69,3.21a5.63,5.63,0,0,0,1.45,1,2,2,0,0,0,1.25,0l.21.79-5.51,1.47-.21-.79q1.08-.29,1-.72a2.33,2.33,0,0,0-.66-.7l-2.54-2.17Z" transform="translate(-4.73 -5.07)"/><path class="cls-3" d="M120.55,158.51l0,.52a2.43,2.43,0,0,0,.14.75.54.54,0,0,0,.44.34,1.63,1.63,0,0,0,.77-.22l.36.73-2.94,1.45-.36-.73q.84-.41.71-2.13L119,151l.77-.38,6.19,5.52a3.08,3.08,0,0,0,1.36.86,1.37,1.37,0,0,0,.75-.11l.36.73L124,159.77l-.36-.73a1.61,1.61,0,0,0,.69-.48.4.4,0,0,0,0-.36,1.18,1.18,0,0,0-.32-.36l-.19-.16-.58-.52Zm-.09-.9,2.16-1.07-2.42-2.11Z" transform="translate(-4.73 -5.07)"/><path class="cls-3" d="M129.71,148.26l2.78,3.62q.67.87,1.18.88a1.6,1.6,0,0,0,1-.37l.5.64-3,2.27-.5-.64a1.48,1.48,0,0,0,.51-.69,1,1,0,0,0,0-.7,3.54,3.54,0,0,0-.51-.82l-3.09-4a1.3,1.3,0,0,0-2.05-.33l-.5-.64,2.66-2,8,1.5L134.57,144q-1-1.29-2.08-.45l-.5-.64,2.83-2.18.5.64a1.29,1.29,0,0,0-.43.59,1,1,0,0,0,0,.69,2.79,2.79,0,0,0,.47.81l4.65,6-.74.57Z" transform="translate(-4.73 -5.07)"/><path class="cls-3" d="M144.63,144.63l-2.54-2.25.58-.66a4.15,4.15,0,0,0,2.36.62,2.33,2.33,0,0,0,1.54-.75,1.35,1.35,0,0,0,.39-1,1.2,1.2,0,0,0-.41-.86,1.3,1.3,0,0,0-.69-.3,2.94,2.94,0,0,0-1.34.3,25.5,25.5,0,0,1-2.44.89,3,3,0,0,1-1.39,0,2.76,2.76,0,0,1-1.3-.67,2.72,2.72,0,0,1-1-2.09,3.07,3.07,0,0,1,.79-2.14,3,3,0,0,1,2.06-1,2,2,0,0,0-.34-.63l.56-.63,2.19,1.94-.54.61a3.27,3.27,0,0,0-1.75-.44,1.89,1.89,0,0,0-1.39.62,1.28,1.28,0,0,0-.37.9,1.06,1.06,0,0,0,.38.79,1.19,1.19,0,0,0,.66.29,1.73,1.73,0,0,0,.79-.09q.4-.14,1.63-.67a9.1,9.1,0,0,1,1.75-.59,2.9,2.9,0,0,1,1.31.06,2.93,2.93,0,0,1,1.19.65,2.83,2.83,0,0,1,1,2.18,3.35,3.35,0,0,1-.88,2.32,3.73,3.73,0,0,1-1.24.91,3.09,3.09,0,0,1-1.42.31,2.79,2.79,0,0,0,.44.72Z" transform="translate(-4.73 -5.07)"/><path class="cls-3" d="M151.27,132.32l.32.42a2.4,2.4,0,0,0,.52.56.53.53,0,0,0,.55.06,1.64,1.64,0,0,0,.54-.6l.69.43-1.72,2.8-.69-.43q.49-.8-.54-2.18l-5-6.63.45-.73,8.18,1.37a3.08,3.08,0,0,0,1.61,0,1.36,1.36,0,0,0,.57-.49l.69.43-2.58,4.2-.69-.43a1.61,1.61,0,0,0,.32-.77.4.4,0,0,0-.19-.31,1.19,1.19,0,0,0-.46-.13l-.24,0-.77-.14Zm-.55-.71,1.26-2.05-3.17-.5Z" transform="translate(-4.73 -5.07)"/><path class="cls-3" d="M159.3,123l-3.16-1.25.32-.82a4.15,4.15,0,0,0,2.43-.23,2.34,2.34,0,0,0,1.19-1.23,1.36,1.36,0,0,0,0-1.07,1.2,1.2,0,0,0-.68-.67,1.31,1.31,0,0,0-.75,0,2.94,2.94,0,0,0-1.15.74,25.16,25.16,0,0,1-2,1.67,3,3,0,0,1-1.29.52,2.76,2.76,0,0,1-1.45-.18,2.72,2.72,0,0,1-1.63-1.63,3.08,3.08,0,0,1,0-2.28,3,3,0,0,1,1.58-1.69,2,2,0,0,0-.54-.47l.31-.78,2.73,1.07-.3.76a3.27,3.27,0,0,0-1.8.19,1.89,1.89,0,0,0-1.09,1.06,1.28,1.28,0,0,0,0,1,1.06,1.06,0,0,0,.63.61,1.19,1.19,0,0,0,.72,0,1.73,1.73,0,0,0,.71-.36q.33-.27,1.3-1.19a9.1,9.1,0,0,1,1.44-1.16,2.89,2.89,0,0,1,1.25-.4,2.92,2.92,0,0,1,1.34.2,2.83,2.83,0,0,1,1.68,1.71,3.36,3.36,0,0,1,0,2.48,3.72,3.72,0,0,1-.85,1.28,3.09,3.09,0,0,1-1.23.78,2.8,2.8,0,0,0,.66.53Z" transform="translate(-4.73 -5.07)"/></g><circle class="cls-1" cx="86.27" cy="87.94" r="56.89"/><g class="cls-2"><polygon class="cls-4" points="97.02 52.4 88.25 52.4 88.25 44.55 84.29 44.55 84.29 52.4 75.52 52.4 75.52 56.37 84.29 56.37 84.29 80.67 88.25 80.67 88.25 56.37 97.02 56.37 97.02 52.4"/><ellipse class="cls-3" cx="86.27" cy="41.21" rx="0.38" ry="1.19"/><ellipse class="cls-3" cx="87.61" cy="46.72" rx="0.38" ry="1.19" transform="translate(-13.85 19.23) rotate(-15.02)"/><ellipse class="cls-3" cx="84.46" cy="48.03" rx="0.38" ry="1.19" transform="translate(-17.43 43.47) rotate(-29.93)"/><ellipse class="cls-3" cx="81.75" cy="50.11" rx="0.38" ry="1.19" transform="translate(-16.23 67.37) rotate(-44.97)"/><ellipse class="cls-3" cx="79.67" cy="52.82" rx="0.38" ry="1.19" transform="translate(-10.73 90.16) rotate(-59.88)"/><ellipse class="cls-3" cx="78.36" cy="55.97" rx="0.38" ry="1.19" transform="translate(-0.8 112.01) rotate(-74.92)"/><ellipse class="cls-3" cx="73.18" cy="54.3" rx="1.19" ry="0.38"/><ellipse class="cls-3" cx="78.36" cy="62.75" rx="1.19" ry="0.38" transform="translate(-18.24 17.21) rotate(-14.91)"/><ellipse class="cls-3" cx="79.67" cy="65.9" rx="1.19" ry="0.38" transform="translate(-26.99 43.48) rotate(-29.93)"/><ellipse class="cls-3" cx="81.75" cy="68.61" rx="1.19" ry="0.38" transform="translate(-29.31 72.74) rotate(-44.95)"/><ellipse class="cls-3" cx="84.46" cy="70.69" rx="1.19" ry="0.38" transform="translate(-23.72 103.44) rotate(-60.01)"/><ellipse class="cls-3" cx="97.54" cy="70.69" rx="0.38" ry="1.19" transform="translate(-27 53.09) rotate(-29.96)"/><ellipse class="cls-3" cx="100.25" cy="68.61" rx="0.38" ry="1.19" transform="translate(-23.89 85.88) rotate(-44.98)"/><ellipse class="cls-3" cx="102.33" cy="65.9" rx="0.38" ry="1.19" transform="translate(-10.66 116.47) rotate(-59.98)"/><ellipse class="cls-3" cx="103.64" cy="62.75" rx="0.38" ry="1.19" transform="translate(11.24 141.3) rotate(-74.84)"/><ellipse class="cls-3" cx="104.08" cy="59.36" rx="0.38" ry="1.19" transform="translate(39.73 158.23) rotate(-89.85)"/><ellipse class="cls-3" cx="103.64" cy="55.97" rx="1.19" ry="0.38" transform="translate(-15.69 23.66) rotate(-15)"/><ellipse class="cls-3" cx="102.33" cy="52.82" rx="1.19" ry="0.38" transform="translate(-17.44 53.06) rotate(-29.94)"/><ellipse class="cls-3" cx="100.25" cy="50.11" rx="1.19" ry="0.38" transform="translate(-10.83 80.4) rotate(-44.95)"/><ellipse class="cls-3" cx="97.54" cy="48.03" rx="1.19" ry="0.38" transform="translate(2.35 103.28) rotate(-59.91)"/><ellipse class="cls-3" cx="94.38" cy="46.72" rx="1.19" ry="0.38" transform="matrix(0.26, -0.97, 0.97, 0.26, 19.93, 120.59)"/></g><g class="cls-2"><path class="cls-3" d="M75,138.53v-.65h.29a1,1,0,0,0,.54-.12q.18-.12.18-.59v-4.45q0-.63-.17-.79a1.77,1.77,0,0,0-1-.15v-.63a4.34,4.34,0,0,0,2.42-.71H78v6.69a1,1,0,0,0,.13.57.71.71,0,0,0,.57.17h.29v.65Z" transform="translate(-4.73 -5.07)"/><path class="cls-3" d="M87,135.43a1.78,1.78,0,0,1-.49.23,1.93,1.93,0,0,1-.55.08,2.38,2.38,0,0,1-1.71-.69,2.45,2.45,0,0,1-.71-1.85,2.51,2.51,0,0,1,.84-2,2.86,2.86,0,0,1,1.88-.7,2.5,2.5,0,0,1,2,.9A4,4,0,0,1,89,134a5.32,5.32,0,0,1-1,3.4,3.23,3.23,0,0,1-2.66,1.29,2.19,2.19,0,0,1-1.21-.27.79.79,0,0,1-.41-.67.6.6,0,0,1,.2-.45.66.66,0,0,1,.47-.19.67.67,0,0,1,.39.11,1.77,1.77,0,0,1,.38.41.77.77,0,0,0,.64.36.88.88,0,0,0,.8-.57A6,6,0,0,0,87,135.43Zm-1.49-2.26a3.9,3.9,0,0,0,.19,1.44.64.64,0,0,0,.62.42.65.65,0,0,0,.62-.37,3.11,3.11,0,0,0,.19-1.31,4.86,4.86,0,0,0-.21-1.78.66.66,0,0,0-1.06-.3.84.84,0,0,0-.27.51A8.62,8.62,0,0,0,85.48,133.18Z" transform="translate(-4.73 -5.07)"/><path class="cls-3" d="M96,133.84a1.93,1.93,0,0,1,1.31.52,1.84,1.84,0,0,1,.54,1.42,2.57,2.57,0,0,1-1,2.11,3.73,3.73,0,0,1-2.41.8,2.85,2.85,0,0,1-1.46-.34,1,1,0,0,1-.57-.88.69.69,0,0,1,.24-.55.77.77,0,0,1,.52-.21.63.63,0,0,1,.46.18,1.63,1.63,0,0,1,.33.57.71.71,0,0,0,.68.56,1.11,1.11,0,0,0,.9-.42,2.48,2.48,0,0,0,.34-1.52,4.84,4.84,0,0,0-.11-1.15.47.47,0,0,0-.49-.4.77.77,0,0,0-.53.27.6.6,0,0,1-.39.22.28.28,0,0,1-.24-.13.43.43,0,0,1-.09-.25.34.34,0,0,1,.09-.24,2.73,2.73,0,0,1,.42-.32,2.32,2.32,0,0,0,1.27-1.84,1.08,1.08,0,0,0-.27-.79.88.88,0,0,0-.65-.27,1,1,0,0,0-.64.23A.69.69,0,0,0,94,132a.75.75,0,0,0,.22.52.25.25,0,0,1,.08.15s-.17.13-.5.27a2.39,2.39,0,0,1-.63.22q-.18,0-.3-.29a1.49,1.49,0,0,1-.11-.54,1.53,1.53,0,0,1,.82-1.29,3.35,3.35,0,0,1,1.85-.53,3,3,0,0,1,1.57.39,1.2,1.2,0,0,1,.67,1.07,1.56,1.56,0,0,1-.5,1.11A3.93,3.93,0,0,1,96,133.84Z" transform="translate(-4.73 -5.07)"/><path class="cls-3" d="M105.23,133.84a1.93,1.93,0,0,1,1.31.52,1.84,1.84,0,0,1,.54,1.42,2.57,2.57,0,0,1-1,2.11,3.73,3.73,0,0,1-2.41.8,2.85,2.85,0,0,1-1.46-.34,1,1,0,0,1-.57-.88.69.69,0,0,1,.24-.55.77.77,0,0,1,.52-.21.63.63,0,0,1,.46.18,1.63,1.63,0,0,1,.33.57.71.71,0,0,0,.68.56,1.11,1.11,0,0,0,.9-.42,2.48,2.48,0,0,0,.34-1.52,4.84,4.84,0,0,0-.11-1.15.47.47,0,0,0-.49-.4.77.77,0,0,0-.53.27.6.6,0,0,1-.39.22.28.28,0,0,1-.24-.13.43.43,0,0,1-.09-.25.34.34,0,0,1,.09-.24,2.73,2.73,0,0,1,.42-.32,2.32,2.32,0,0,0,1.27-1.84,1.08,1.08,0,0,0-.27-.79.88.88,0,0,0-.65-.27,1,1,0,0,0-.64.23.69.69,0,0,0-.29.55.75.75,0,0,0,.22.52.25.25,0,0,1,.08.15s-.17.13-.5.27a2.39,2.39,0,0,1-.63.22q-.18,0-.3-.29a1.49,1.49,0,0,1-.11-.54,1.53,1.53,0,0,1,.82-1.29,3.35,3.35,0,0,1,1.85-.53,3,3,0,0,1,1.57.39,1.2,1.2,0,0,1,.67,1.07,1.56,1.56,0,0,1-.5,1.11A3.93,3.93,0,0,1,105.23,133.84Z" transform="translate(-4.73 -5.07)"/></g><g class="cls-2"><path class="cls-3" d="M76.44,108.41a16.31,16.31,0,0,0,29.28,0Z" transform="translate(-4.73 -5.07)"/><circle class="cls-3" cx="86.35" cy="90.21" r="1.57"/><path class="cls-3" d="M76.42,107.33h29.34v-.61l-.37,0a9.6,9.6,0,0,1-8-4.34H84.56a9.59,9.59,0,0,1-8,4.34h-.12Z" transform="translate(-4.73 -5.07)"/><path class="cls-3" d="M97.14,101.4a6.75,6.75,0,0,0-12.11,0Z" transform="translate(-4.73 -5.07)"/><path class="cls-3" d="M75.42,126.3h31.34V124.7l-1.37,0c-3.36,0-6.31-.73-8-3.34H84.56c-1.72,2.61-4.67,3.34-8,3.34H75.42Z" transform="translate(-4.73 -5.07)"/><rect class="cls-3" x="80.21" y="113.59" width="12.28" height="1.59"/><path class="cls-3" d="M65.87,105.12h8.2s-.12,5.06,6.56,10.25C80.63,115.37,72.79,115.56,65.87,105.12Z" transform="translate(-4.73 -5.07)"/><path class="cls-3" d="M107.37,112.25a9.09,9.09,0,0,0,9.2-9.24,7.41,7.41,0,0,0-14.81,0,2.88,2.88,0,0,0,2.88,2.88,3,3,0,0,0,2.88-2.87,1.85,1.85,0,0,1,2-2,2,2,0,0,1,2,2c0,7-2.42,7-4.22,7a3.33,3.33,0,0,0,0,6.65,1.29,1.29,0,0,0,0-2.58.92.92,0,0,1,0-1.83Z" transform="translate(-4.73 -5.07)"/><path id="_Path_" data-name="&lt;Path&gt;" class="cls-3" d="M68.33,103.2a13.52,13.52,0,0,1,9.57-9.11c7.91-2.2.14-14.37-.36-14.76,0,0,1.55,6.86-4.18,10.65S68.12,99.19,68.33,103.2Z" transform="translate(-4.73 -5.07)"/><path id="_Path_2" data-name="&lt;Path&gt;" class="cls-3" d="M66,96.5a9.17,9.17,0,0,1,5.35-7.19c5-2.39-1.57-9.62-1.94-9.82,0,0,1.83,4.41-1.57,7.6S65.43,93.84,66,96.5Z" transform="translate(-4.73 -5.07)"/></g></svg>